<svg width="209" height="225" viewBox="0 0 209 225" fill="none" xmlns="http://www.w3.org/2000/svg">
<path d="M79.6425 149.854C78.8582 141.38 76.0454 128.685 76.0454 128.685C76.0454 128.685 73.6157 128.461 66.1194 145.194C60.5681 157.735 54.1273 170.517 53.0626 181.329L65.8465 166.095L79.6425 149.854Z" fill="#96BAFD"/>
<path d="M28.3685 88.8841C27.0009 75.99 30.5129 75.3648 30.5621 68.3734C30.5863 61.5421 40.9112 48.8947 35.9866 49.1506C31.0619 49.4057 27.6042 54.108 27.6042 54.108C26.8733 47.9794 28.1073 37.7804 21.8301 33.9325C15.5521 30.0846 14.0743 31.9469 8.96278 33.4773C-4.68305 37.6645 2.9342 55.7044 3.07355 61.4212C3.19704 65.0199 9.53184 78.4783 9.81888 80.9607L11.8365 90.5329L28.3685 88.8841Z" fill="#FCA39B"/>
<path d="M20.591 51.9422L18.7245 33.4338" stroke="#E56441" stroke-width="1.0064" stroke-linecap="round"/>
<path d="M14.2078 52.1474L11.1714 34.3684" stroke="#E56441" stroke-width="1.0064" stroke-linecap="round"/>
<path d="M6.70819 52.1881L5.17371 41.5481" stroke="#E56441" stroke-width="1.0064" stroke-linecap="round"/>
<path d="M17.0531 66.0709C19.2826 60.8642 25.0676 55.8518 25.0676 55.8518" stroke="#E56441" stroke-width="1.0064" stroke-linecap="round"/>
<path fill-rule="evenodd" clip-rule="evenodd" d="M30.8801 89.2892C30.6181 89.1283 30.326 89.0258 30.0257 88.9857C29.4808 87.4127 28.8041 85.8656 28.0898 85.2004C26.3843 83.6149 13.6805 86.0398 11.6529 86.8926C10.3654 87.4344 10.7125 90.7613 11.1381 93.1179C11.0597 93.2037 10.9854 93.2938 10.9153 93.388C10.4397 94.0332 10.2202 94.8318 10.3004 95.6295L17.7407 174.231C17.7399 174.31 17.7391 174.39 17.7391 174.47C17.7391 184.335 25.7452 192.333 35.6203 192.333C40.5133 192.333 44.9473 190.37 48.1756 187.188L48.2473 187.254L53.1828 181.369L65.9676 166.136L79.6426 149.854L81.3415 148.001L99.7884 127.127C99.7884 127.127 99.7334 127.106 99.6316 127.064C101.943 124.869 103.766 122.094 104.849 118.862C108.389 108.304 102.691 96.8791 92.1236 93.343C83.6603 90.5112 74.6404 93.5981 69.5647 100.363C64.5299 106.203 53.5091 120.702 43.3427 134.296L31.8313 90.5279C31.6786 90.0119 31.3398 89.5701 30.8801 89.2892Z" fill="url(#paint0_linear_80_321)"/>
<path d="M106.449 84.5261C106.449 84.5261 85.9198 90.578 80.754 92.7361C75.5882 94.8952 75.2436 103.53 74.899 109.647C74.6579 113.933 73.8468 164.223 74.1656 204.981C74.2332 213.689 72.1939 220.108 71.15 224.948H182.701C182.701 224.948 181.66 220.698 181.402 210.278C180.354 167.946 180.158 111.588 179.699 108.232C179.011 103.195 184.423 98.8565 178.556 96.3207L142.245 81.8252L106.449 84.5261Z" fill="url(#paint1_linear_80_321)"/>
<path d="M153.203 128.097C153.203 128.097 146.342 170.641 146.011 190.2C145.805 202.387 145.969 217.892 145.928 224.948H182.701L175.123 188.963L177.865 128.301L153.203 128.097Z" fill="url(#paint2_linear_80_321)"/>
<path d="M111.193 63.7894L114.699 96.5131C114.699 96.5131 114.312 106.293 119.953 106.289C139.736 106.274 143.992 88.7073 143.346 86.3715C142.42 83.0246 138.629 57.6316 138.629 57.6316L111.193 63.7894Z" fill="#FCA39B"/>
<path d="M114.92 94.8993L111.409 66.3794H126.822L114.92 94.8993Z" fill="#E56441" stroke="#E56441"/>
<path d="M147.674 43.9381C146.879 31.0898 132.928 36.0631 130.56 37.0175C128.193 37.972 121.407 19.8071 121.407 19.8071C121.407 19.8071 92.252 19.1844 86.9611 25.1671C86.9611 25.1671 86.8443 49.4139 88.5974 64.6579C90.3496 79.902 95.6614 86.0222 101.302 85.6738C109.084 85.848 117.804 82.9246 123 78.6616C132.256 71.0667 134.913 59.5272 134.913 59.5272C135.084 59.4155 135.178 59.3563 135.178 59.3563C135.178 59.3563 148.425 56.0727 147.674 43.9381Z" fill="#FCA39B"/>
<path d="M145.874 56.4204C151.534 46.4606 164.093 28.3373 141.814 7.32897C129.165 -4.59898 81.379 -3.46361 83.4641 30.8573C83.6769 34.3617 85.2164 41.1414 87.2498 43.678L87.7246 34.2342C88.9796 26.9052 90.6867 35.3637 99.7884 35.0178C114.031 34.4768 115.188 27.7971 119.192 29.9812C127.119 34.3059 122.647 43.8889 124.35 46.5739C126.806 50.4452 127.912 46.2338 127.912 46.2338C131.905 42.0175 137.031 39.801 140.648 44.3816C145.406 50.406 133.768 61.0469 133.768 61.0469L140.341 70.3949C143.844 69.5271 145.882 56.4121 145.882 56.4121L145.874 56.4204Z" fill="#080B09"/>
<path d="M110.072 49.7641C110.131 47.916 109.196 46.3864 107.985 46.3472C106.772 46.308 105.741 47.7751 105.682 49.6232C105.623 51.4722 106.557 53.0018 107.769 53.041C108.981 53.0802 110.012 51.613 110.072 49.7641Z" fill="#080B09"/>
<path d="M93.3718 49.1214C93.431 47.2725 92.4965 45.7428 91.2841 45.7036C90.0726 45.6653 89.0412 47.1316 88.982 48.9805C88.9219 50.8286 89.8573 52.3591 91.0688 52.3974C92.2812 52.4366 93.3125 50.9695 93.3718 49.1214Z" fill="#080B09"/>
<path d="M97.4153 53.2527C97.4153 53.2527 100.115 56.7155 97.2493 57.3056C94.4932 57.775 93.1907 59.6822 96.3957 61.5045" stroke="#E56441" stroke-width="1.01075" stroke-linecap="round"/>
<path d="M97.478 64.9948L97.4922 64.9939L97.5056 64.9923C99.2336 64.7997 102.683 64.4146 104.983 64.197L104.987 64.1962C105.049 64.1904 105.112 64.2003 105.169 64.227C105.225 64.2537 105.274 64.2954 105.308 64.3479C105.343 64.4004 105.363 64.4613 105.366 64.523C105.367 64.583 105.354 64.6422 105.326 64.6955C104.93 65.3349 104.397 66.106 103.774 66.8003C103.145 67.5031 102.447 68.1016 101.729 68.42C101.028 68.7326 100.323 68.7735 99.6149 68.3934C98.8831 67.9999 98.0871 67.1255 97.3053 65.4649L97.2911 65.4341L97.2728 65.4066C97.2461 65.3682 97.2302 65.3232 97.2268 65.2757C97.2235 65.229 97.2335 65.1823 97.2544 65.1407C97.2752 65.0981 97.3069 65.0623 97.3462 65.0373C97.3854 65.0114 97.4313 64.9964 97.478 64.9948Z" fill="#E56441" stroke="#E56441"/>
<path d="M114.375 43.8198L114.224 44.1524C114.047 44.6559 113.677 45.0693 113.196 45.3027C112.714 45.5353 112.16 45.5678 111.654 45.3944L103.043 42.1776C102.619 42.0392 102.263 41.7466 102.046 41.359C101.828 40.9705 101.763 40.5145 101.866 40.0819C101.916 39.8135 102.023 39.5592 102.179 39.335C102.335 39.1116 102.537 38.9232 102.771 38.7831C103.006 38.6423 103.267 38.5539 103.538 38.5214C103.809 38.4897 104.084 38.5156 104.344 38.5981L113.108 41.4823C113.347 41.549 113.57 41.6624 113.765 41.8175C113.959 41.9717 114.12 42.1642 114.239 42.3826C114.356 42.6002 114.43 42.8403 114.453 43.087C114.476 43.3338 114.451 43.583 114.375 43.8198Z" fill="#080B09"/>
<path d="M85.1154 39.6408L94.2863 38.6238C94.5575 38.5971 94.832 38.6279 95.0907 38.7155C95.3493 38.8022 95.5872 38.943 95.7874 39.1281C95.9877 39.314 96.1462 39.5399 96.253 39.7908C96.359 40.0426 96.4107 40.3135 96.4049 40.5861C96.4157 41.0312 96.2597 41.4638 95.966 41.7981C95.6731 42.1332 95.2642 42.3458 94.8212 42.3941L85.7304 43.7679C85.1997 43.8338 84.664 43.6871 84.2409 43.3603C83.8179 43.0335 83.5417 42.5525 83.4725 42.0232L83.3932 41.6664C83.369 41.4197 83.394 41.1704 83.4683 40.9337C83.5426 40.6969 83.6635 40.4769 83.8237 40.2885C83.9848 40.0992 84.1817 39.9442 84.4037 39.8333C84.6256 39.7216 84.8676 39.6566 85.1154 39.6408Z" fill="#080B09"/>
<path d="M58.906 171.356H90.262C90.7193 171.372 91.1749 171.283 91.5921 171.094C92.0093 170.907 92.3772 170.625 92.6676 170.271C92.958 169.917 93.1624 169.501 93.2659 169.056C93.3685 168.61 93.3669 168.147 93.2617 167.702L83.6193 114.168C83.4149 113.163 82.8776 112.257 82.0949 111.595C81.3122 110.932 80.3293 110.551 79.3038 110.514H47.9478C47.4905 110.498 47.0358 110.587 46.6186 110.775C46.2014 110.963 45.8326 111.245 45.5422 111.599C45.2526 111.952 45.0474 112.368 44.9448 112.813C44.8413 113.259 44.843 113.723 44.9489 114.168L54.5905 167.702C54.7957 168.706 55.3323 169.613 56.1149 170.276C56.8976 170.938 57.8805 171.319 58.906 171.356Z" fill="#5CA4E6"/>
<path d="M57.4991 171.356H88.8551C89.3124 171.372 89.7671 171.283 90.1843 171.094C90.6015 170.907 90.9703 170.625 91.2599 170.271C91.5503 169.917 91.7555 169.501 91.8581 169.056C91.9608 168.61 91.9599 168.147 91.854 167.702L82.2124 114.168C82.0072 113.163 81.4707 112.257 80.688 111.595C79.9053 110.932 78.9215 110.551 77.8969 110.514H46.5409C46.0836 110.498 45.628 110.587 45.2108 110.775C44.7936 110.963 44.4256 111.245 44.1353 111.599C43.8449 111.952 43.6405 112.368 43.537 112.813C43.4344 113.259 43.4361 113.723 43.5412 114.168L53.1836 167.702C53.388 168.706 53.9253 169.613 54.708 170.276C55.4907 170.938 56.4736 171.319 57.4991 171.356Z" fill="white"/>
<path d="M105.93 156.397L102.29 168.253C102.29 168.253 87.2073 164.641 83.9806 163.058C77.6892 159.827 70.9239 155.468 70.1312 153.811C67.7039 149.619 67.4185 144.433 67.6956 140.811C67.7315 140.273 67.8983 139.752 68.1828 139.293C68.4674 138.835 68.8604 138.453 69.3277 138.182C69.7941 137.911 70.3206 137.76 70.8605 137.74C71.4003 137.72 71.936 137.833 72.4216 138.069L85.6236 144.651C85.6236 144.651 87.3424 141.75 85.6135 139.444C84.4996 137.922 86.2185 135.021 86.982 134.133C87.3257 133.928 87.7179 133.82 88.1176 133.818C88.5173 133.818 88.9103 133.923 89.2549 134.125C89.8698 134.909 89.0246 137.633 90.3212 139.362C92.5291 142.13 90.569 143.332 96.253 148.05C100.75 151.752 105.977 156.283 105.93 156.397Z" fill="#FCA39B"/>
<path d="M80.3976 146.656C76.6411 145.391 68.9805 140.935 68.9805 140.935" stroke="#E56441" stroke-width="1.17473" stroke-linecap="round" stroke-linejoin="round"/>
<path d="M80.8916 151.66C77.8686 150.561 69.885 146.24 69.885 146.24" stroke="#E56441" stroke-width="1.17473" stroke-linecap="round" stroke-linejoin="round"/>
<path d="M79.0702 156.12C77.0768 155.442 71.15 152.625 71.15 152.625" stroke="#E56441" stroke-width="1.17473" stroke-linecap="round" stroke-linejoin="round"/>
<path fill-rule="evenodd" clip-rule="evenodd" d="M150.591 121.771C152.055 130.679 157.138 152.674 161.644 171.595L105.168 150.314C104.624 150.133 104.032 150.16 103.506 150.389C102.982 150.619 102.559 151.034 102.322 151.556L95.0414 167.824C94.701 168.607 94.665 169.488 94.9387 170.296C95.2124 171.104 95.7773 171.782 96.5233 172.197L178.022 217.514C181.122 219.703 184.906 220.988 188.99 220.988C199.499 220.988 208.018 212.477 208.018 201.979C208.018 199.034 207.348 196.246 206.152 193.758L205.565 190.465L201.856 169.637L197.9 147.368L197.546 144.717L193.099 115.419C193.099 115.419 193.043 115.451 192.939 115.504C192.726 112.12 191.704 108.736 189.804 105.644C183.599 95.547 170.375 92.3868 160.268 98.5863C152.174 103.55 148.532 113.012 150.591 121.771Z" fill="url(#paint3_linear_80_321)"/>
<defs>
<linearGradient id="paint0_linear_80_321" x1="47.0224" y1="50.4202" x2="87.2365" y2="310.82" gradientUnits="userSpaceOnUse">
<stop stop-color="white"/>
<stop offset="1" stop-color="#94B9FF"/>
</linearGradient>
<linearGradient id="paint1_linear_80_321" x1="114.012" y1="36.2866" x2="174.509" y2="380.076" gradientUnits="userSpaceOnUse">
<stop stop-color="white"/>
<stop offset="1" stop-color="#94B9FF"/>
</linearGradient>
<linearGradient id="paint2_linear_80_321" x1="159.865" y1="7.37081" x2="278.665" y2="287.231" gradientUnits="userSpaceOnUse">
<stop stop-color="white"/>
<stop offset="1" stop-color="#94B9FF"/>
</linearGradient>
<linearGradient id="paint3_linear_80_321" x1="138.275" y1="55.4567" x2="184.497" y2="359.41" gradientUnits="userSpaceOnUse">
<stop stop-color="white"/>
<stop offset="1" stop-color="#94B9FF"/>
</linearGradient>
</defs>
</svg>
